<?xml version="1.0" standalone="no"?><!DOCTYPE svg PUBLIC "-//W3C//DTD SVG 1.1//EN" "http://www.w3.org/Graphics/SVG/1.1/DTD/svg11.dtd"><svg t="1672145298371" class="icon" viewBox="0 0 1024 1024" version="1.1" xmlns="http://www.w3.org/2000/svg" p-id="2198" xmlns:xlink="http://www.w3.org/1999/xlink" width="200" height="200"><path d="M1002.709333 371.841219L851.709562 133.751467c-13.185219-20.7616-40.738133-26.904381-61.561905-13.833753L36.551924 596.655543c-20.766476 13.185219-26.904381 40.738133-13.861791 61.442438L173.689905 896.21821c13.186438 20.709181 40.738133 26.847086 61.505828 13.777676l753.623772-476.704915c20.823771-13.192533 27.079924-40.711314 13.889828-61.449752z m-30.076343 35.861943L219.009219 884.470248c-6.665752 4.199619-15.390476 2.233295-19.590095-4.404419L48.419352 641.946819c-4.200838-6.666971-2.233295-15.362438 4.432458-19.619352l753.653028-476.737829c6.671848-4.171581 15.42339-2.200381 19.562057 4.437333l151.061943 238.115353c4.052114 6.523124 2.056533 15.275886-4.495848 19.560838zM322.985448 256.618057l12.514742 30.014172 16.214553-28.166096 32.394971-2.614857-21.82339-24.143238 7.432533-31.575771-29.609447 13.309562-27.813791-16.833829 3.523048 32.338895-24.671086 21.033448 31.837867 6.637714z m191.885409-89.352533l-15.567238-28.575695-13.185219 29.752076-32.014629 6.109866 24.171277 21.675886-4.171581 32.219429 28.195352-16.301105 29.404648 13.953219-6.785219-31.837867 22.290285-23.61539-32.337676-3.380419z m292.548267 478.676114l-25.762134-19.799771-0.11459 32.457143-26.904381 18.243047 30.985752 10.220495 9.133105 31.161296 19.209753-26.229029 32.514438 0.910629-19.090286-26.372877 11.014095-30.461561-30.985752 9.870628zM702.266514 775.350857l-12.275809-30.104381-16.481524 28.052724-32.366933 2.349105 21.61859 24.260266-7.695848 31.542858 29.781334-13.009677 27.700419 17.209296-3.262172-32.366934 24.671086-21.000533-31.689143-6.932724z m-192.624152 88.00061l15.424609 28.695162 13.452191-29.666743 32.014628-5.723429-24.028647-21.914819 4.409295-32.190171-28.314819 16.009752-29.257143-14.1568 6.519467 31.775695-22.614553 23.530057 32.394972 3.641296zM221.09501 382.417676l25.614628 20.119162 0.380343-32.485181 27.023848-18.152838-30.813867-10.428952-8.900267-31.3088-19.44259 26.052266-32.514438-1.176381 18.82819 26.494781-11.223771 30.548115 31.047924-9.662172zM106.691048 522.665448c-3.4048-137.519543 63.47581-273.481143 188.071009-352.285258 124.623238-78.805333 276.124038-81.038629 399.190553-19.295085l29.724038-18.800153c-36.419048-20.353219-75.600457-35.247543-116.866438-44.500114-55.133867-12.395276-111.290514-13.948343-166.805943-4.814019-57.480533 9.513448-111.818362 30.251886-161.456762 61.70941-49.609143 31.456305-91.671162 71.637333-124.862172 119.514209-32.132876 46.171429-54.718171 97.604267-67.142704 152.646705-9.252571 41.205029-12.542781 82.972038-9.662172 124.596419l29.810591-18.772114z m809.285485-21.028572c3.552305 137.519543-63.328305 273.481143-187.923504 352.257219-124.5952 78.890667-276.122819 81.066667-399.162515 19.324343l-29.781333 18.828191c36.419048 20.294705 75.628495 35.220724 116.900571 44.470857 55.127771 12.395276 111.285638 14.010514 166.799848 4.814019 57.480533-9.514667 111.819581-30.223848 161.428724-61.681372s91.671162-71.638552 124.890209-119.486171c32.014629-46.228724 54.599924-97.628648 66.9952-152.643048 9.28061-41.237943 12.514743-83.03299 9.632915-124.656152l-29.780115 18.772114zM384.637562 312.189562c34.895238-22.02819 73.281829-33.781029 111.819581-36.128914l45.994667-29.080381c-60.771962-7.166781-121.628038 6.523124-174.143391 39.684876-52.371505 33.128838-90.761752 82.328381-110.2336 140.247771l45.966629-29.075504c18.681905-33.95779 45.73501-63.562362 80.596114-85.647848zM638.147048 712.084724c-34.895238 22.090362-73.252571 33.838324-111.790324 36.186209l-45.967848 29.080381c60.743924 7.166781 121.571962-6.552381 174.115353-39.714133 52.371505-33.099581 90.761752-82.328381 110.204342-140.247771l-45.93859 29.137676c-18.679467 33.80541-45.76061 63.529448-80.622933 85.557638z m-338.951315-63.914667" p-id="2199" fill="#43bf88"></path><path d="M155.215238 608.926476l26.474057-1.788343c-3.997257 3.347505-7.336229 15.221029-10.025447 35.637638-2.3296 20.976152-8.213943 41.892571-17.643277 62.728534l-3.456-1.288534c4.717714-18.600229 7.494705-36.154514 8.317562-52.656761 0.816762-16.479086-0.410819-30.699276-3.666895-42.632534z m51.504762 80.304762L275.748571 796.854857l-10.793447 13.933714c-7.883581-13.639924-15.345371-25.979124-22.430476-37.026133l-39.823848-62.090971c-3.139048 18.371048-8.5248 36.6336-16.169448 54.771809l-3.456-1.286095c6.242743-25.8048 9.375695-49.631086 9.406172-71.466667 0.0256-21.814857-1.015467-37.121219-3.130514-45.897143l25.541485-1.193447c-3.641295 3.90461-6.370743 18.107733-8.172495 42.631314z m46.2848-93.950781c-9.201371-14.345752-17.128838-26.002286-23.764114-35.001295l27.677257-6.065981-4.671391 11.17379 13.805715 21.523505 28.890209-18.528305 4.410514-15.683047 24.869791 3.911924-54.985143 35.267047 21.239467 33.116648 46.598095-29.88861 4.811581-17.106895 26.333867 4.141105-120.222477 77.108419c-8.081067 5.18339-15.006476 10.793448-20.77379 16.83139l-13.165714-2.071162 63.37219-40.646704-21.239467-33.115429-27.958857 17.932191-11.053104 9.426895-11.702858-1.840762 47.528229-30.484724z m84.946895 140.645181c17.290971-7.199695 28.192914-12.440381 32.677791-15.700114 4.477562-3.274362 5.305295-7.111924 2.475885-11.521219l-37.168761-57.952305-74.556953 47.819581-7.325257 7.037562-11.705295-1.8432 90.399695-57.981562c-3.8912-6.0672-9.520762-14.140952-16.860648-24.238324l27.274972-4.642133-5.201676 10.347276 6.902247 10.760533 13.047467-8.366323 4.8128-17.106896 26.332648 4.139886-41.006324 26.299733 39.292343 61.264457c6.371962 9.9328 4.444648 21.283352-5.764877 34.078477-6.112305-5.428419-19.774171-4.845714-40.973409 1.7408l-2.652648-4.136229z m-59.677257-37.671009c19.594971-0.886248 31.5392-0.366933 35.847314 1.543314 4.293486 1.921219 7.33501 4.259352 9.102629 7.016838 1.06179 1.654248 1.762743 4.126476 2.118705 7.402057 0.340114 3.287771-0.607086 6.230552-2.872076 8.855162-2.26499 2.618514-6.627962 0.944762-13.096229-5.040762-6.459733-5.968457-17.412876-11.413943-32.835048-16.329143l1.734705-3.447466z" p-id="2200" fill="#43bf88"></path><path d="M264.2176 821.692952l-4.539733-7.854323c-7.914057-13.692343-15.412419-26.069333-22.284191-36.785981l-31.720838-49.456762c-3.270705 13.822781-7.798248 27.629714-13.524114 41.214781l-2.267429 5.382095-14.001981-5.207772 1.272686-5.258971c6.098895-25.209905 9.206248-48.775314 9.235505-70.0416 0.0256-21.244343-0.971581-36.203276-2.961067-44.462324l-1.728609-7.171657 47.854933-2.235733-10.200991 10.94339c-0.454705 0.521752-2.21379 3.240229-4.047238 15.213715l53.706362-34.447848-14.657828-22.853486-22.479238 14.417676-12.870705 10.977524-30.317714-4.767695 55.886019-35.846095c-7.639771-11.761371-14.433524-21.685638-20.234972-29.552153l-5.574705-7.560533 48.301105-10.58621-7.957943 19.037867 8.788115 13.700876 21.809981-13.987352 5.249219-18.667276 46.064152 7.246019-63.355124 40.635733 14.657829 22.854705 39.517866-25.346438 5.650286-20.088686 47.52701 7.4752-53.032229 34.012648 22.044038-3.75101-9.055086 18.011429 1.735924 2.707505 5.968457-3.82781 5.651505-20.088686 47.52701 7.472762-49.377524 31.669638 36.002133 56.133486c5.432076 8.467505 8.778362 22.485333-6.131809 41.169676l-4.008229 5.022476-4.804267-4.266666c-1.57501-1.399467-4.637257-2.139429-8.852723-2.139429-6.442667 0-15.279543 1.731048-26.264381 5.143162l-4.432457 1.377524-9.08922-14.166553 6.714515-2.796495c20.8896-8.697905 28.625676-12.959695 31.438019-15.004038 2.0736-1.515276 1.877333-1.822476 0.928914-3.298743l-33.878552-52.822552-51.126857 32.791162c4.259352-0.149943 8.139581-0.225524 11.578514-0.225524 14.567619 0 19.432838 1.327543 22.044038 2.484419 5.406476 2.41859 9.35741 5.545448 11.763809 9.300114 1.584762 2.46979 2.581943 5.753905 3.0464 10.033981 0.514438 4.972495-0.980114 9.628038-4.317866 13.494857-1.848076 2.135771-4.4288 3.309714-7.2704 3.309715-4.208152 0-8.705219-2.423467-14.578591-7.8592-5.766095-5.328457-16.043886-10.374095-30.545676-14.995505l-6.802286-2.167467 2.748953-5.466209-5.463772 3.504762-9.077028 8.721066-30.534705-4.806704L324.266667 643.983848c-3.337752-4.951771-7.573943-10.959238-12.821943-18.18941L251.288381 664.380952c-7.639771 4.900571-14.253105 10.25219-19.657143 15.909791l-2.204038 2.307657-15.826895-2.489295c-0.223086 2.328381-0.440076 4.839619-0.649753 7.547124l70.250058 109.530209-18.98301 24.506514z m-64.877714-126.550552l48.313295 75.32861c5.635657 8.786895 11.678476 18.6624 18.016305 29.44l2.624609-3.387734-67.803428-105.713371 0.148723-2.026057c0.2816-3.838781 0.581486-7.355733 0.893562-10.575238l-3.158552-0.496153c0.14019 4.872533 0.206019 10.196114 0.199924 15.984153a237.533867 237.533867 0 0 1-0.097524 6.48899l0.863086-5.0432z m169.339124 33.409219c4.304457 0 8.044495 0.60221 11.1872 1.796876 7.653181-11.585829 5.116343-18.49539 2.347885-22.812038l-51.258514-79.915886 1.349486-2.683123-5.76 0.980114c4.699429 6.601143 8.404114 12.014933 11.229866 16.414476l40.458972 63.083276c4.59459 7.160686 3.095162 14.538362-4.010667 19.732724-1.367771 0.994743-3.21219 2.128457-5.544228 3.403581z m-69.694172-24.572343c6.030629 2.992762 10.843429 6.170819 14.527391 9.5744 2.592914 2.399086 4.299581 3.560838 5.307733 4.120381 0.430324-0.872838 0.570514-1.777371 0.4608-2.831847-0.349867-3.2256-0.995962-4.44221-1.184914-4.73722-1.091048-1.700571-3.324343-3.34019-6.462172-4.745752-0.649752-0.285257-3.39139-1.162971-12.648838-1.379962z m-102.375619-50.423466c0.8704 6.111086 1.448229 13.834971 1.742019 23.287466l3.5584-2.283276c1.066667-9.862095 2.275962-16.644876 3.542552-21.416229l-8.842971 0.412039z m64.817981-56.43581l21.028571 32.787505 2.786743-1.787124-39.851885-62.133638 1.383619-3.310933-7.169219 1.571352c5.497905 7.809219 11.669943 17.047162 18.427123 27.577295l3.395048 5.295543z m105.699962 22.282971l-1.408 5.006629 6.546286-4.1984-5.138286-0.808229z m-20.8384-34.540495l-1.408 5.007848 6.547505-4.199619-5.139505-0.808229z m-42.533791-25.298895l-1.006933 3.581562 4.683581-3.004953-3.676648-0.576609zM157.227886 713.205029l-13.91421-5.185829 1.34461-5.301638c4.603124-18.149181 7.341105-35.463314 8.138362-51.462095 0.78019-15.750095-0.384-29.45219-3.459658-40.724724l-1.960228-7.185067 52.576305-3.551086-14.34941 12.014934c-0.427886 0.37181-4.291048 4.425143-7.887238 31.701333-2.39421 21.495467-8.497981 43.198171-18.140648 64.505905l-2.347885 5.188267z m5.546666-98.679467c1.816381 9.257448 2.62339 19.653486 2.411277 31.054019 0.151162-1.159314 0.291352-2.31741 0.420571-3.475505l0.014629-0.123124c1.765181-13.403429 3.665676-22.162286 5.5808-28.024685l-8.427277 0.569295z" fill="#43bf88" p-id="2201"></path><path d="M552.855162 482.413714l41.418362 64.574172c6.729143 10.489905 13.58019 20.499505 20.578743 30.033676l-12.658591 15.128381c-10.008381-16.949638-18.714819-31.228343-26.148571-42.819048l-37.168762-57.951085-57.780419 37.060266c14.599314 24.138362 21.354057 47.647695 20.259352 70.549943-1.094705 22.902248-10.945829 49.264152-29.504609 79.097905l-4.388572-0.689981c13.06941-24.740571 20.096-47.942705 21.110248-69.624686 0.9984-21.672229-6.153752-45.127924-21.456457-70.367086l-36.347124 23.311848c-8.081067 5.18461-15.005257 10.793448-20.772572 16.830171l-13.166933-2.068723 67.101257-43.038477-39.823847-62.090971-23.298438 14.943086c-8.082286 5.18339-15.006476 10.793448-20.773791 16.828952l-13.166933-2.071162 159.364876-102.213485 6.014781-21.385753 30.722438 4.834743-53.121219 34.071162 39.823848 62.090971 29.822781-19.128076 6.415847-22.8096 32.182857 5.061486-65.238552 41.841371z m-114.769676-21.02979l39.823847 62.089752 57.780419-37.059047-39.823847-62.090972-57.780419 37.060267z" p-id="2202" fill="#43bf88"></path><path d="M474.890971 684.73661l-16.804571-2.644115 3.985067-7.542247c12.575695-23.808 19.44381-46.371352 20.411733-67.063467 0.866743-18.808686-4.990781-39.482514-17.42019-61.524114l-31.004039 19.885104c-7.636114 4.899352-14.249448 10.250971-19.657142 15.909791l-2.202819 2.306438-32.164572-5.054171 75.474895-48.408381-33.242209-51.830248-18.168686 11.652876c-7.638552 4.899352-14.251886 10.25219-19.657143 15.908572l-2.204038 2.306438-32.162133-5.057829 170.916571-109.622857 6.853486-24.368762 51.914362 8.170057-61.489981 39.439848 33.243428 51.829028 22.741334-14.585904 7.254552-25.79261 53.377219 8.394362-73.608533 47.211276 38.126933 59.444419c6.677943 10.410667 13.527771 20.409295 20.360534 29.716724l2.82819 3.852191-21.261409 25.412266-4.387353-7.430095c-10.225371-17.31779-18.740419-31.261257-26.031543-42.627657l-33.878552-52.820114-47.733029 30.615161c13.108419 23.343543 19.208533 46.485943 18.139429 68.864-1.13859 23.815314-11.372495 51.413333-30.417676 82.027277l-2.132115 3.426743z m-2.541714-150.454858c15.121067 24.951467 22.648686 48.681448 22.401219 70.593829a89.795048 89.795048 0 0 0 0.514438-6.176914c1.028876-21.54179-5.485714-44.106362-19.362133-67.063467l-42.843429-66.797714-3.718095 2.384457 39.614172 61.764267 0.131657-0.085334 3.264609 5.380876h-0.002438z m71.762895-46.027581l37.062705 57.786515c6.2976 9.81821 13.486324 21.514971 21.868495 35.593752l4.080153-4.87619A595.282895 595.282895 0 0 1 589.141333 550.278095l-84.321523-131.466971-3.718096 2.385676 43.010438 67.057371z m-97.605485-25.030704l33.242209 51.829028 47.519695-30.477409-33.242209-51.829029-47.519695 30.47741z m143.802514-20.850591l-3.012267 10.708114 14.000762-8.980723-10.988495-1.727391z m-53.662476-59.057981l-2.612419 9.287924 12.142933-7.788495-9.530514-1.499429z" fill="#43bf88" p-id="2203"></path><path d="M652.728076 303.850057l-5.202895 10.347276c2.113829 8.775924 6.176914 23.314286 12.179505 43.599238l28.890209-18.529523 1.745676-11.634591 21.814858 1.198324-4.270324 9.748724c14.395733 37.505219 23.277714 68.431238 26.613028 92.763428 15.338057-2.041905 25.142857-2.488076 29.399772-1.328762 4.250819 1.180038 7.801905 3.960686 10.631314 8.3712a38.881524 38.881524 0 0 1 4.111848 8.46141c0.966705 2.886705 1.13859 4.529981 0.526628 4.921295-1.863924 1.195886-5.764876 0.592457-11.704076-1.840762-10.187581-3.580343-20.785981-5.74659-31.784229-6.48899-2.792838 29.834971-12.152686 57.636571-28.045409 83.421866l-3.457219-1.290971c11.825981-29.40099 17.538438-56.031086 17.133714-79.924419-20.490971 2.243048-37.079771 5.087086-49.761524 8.546743-6.697448-26.848305-14.255543-54.334171-22.635276-82.461257l-1.863924 1.195885c-8.081067 5.18339-15.006476 10.793448-20.775009 16.828953l-13.165714-2.069943 33.549409-21.518629c-9.012419-27.702857-16.086552-46.934552-21.206552-57.673142l27.27619-4.643353z m9.233067 59.511467c3.792457 15.495314 10.673981 42.630095 20.642133 81.404343 13.308343-3.861943 25.682895-7.126552 37.126095-9.79261-2.711162-24.733257-11.715048-55.178971-27.012876-91.337143l-30.755352 19.72541z m57.489067-117.494248l27.936914-1.560381-5.733181 9.519543c0.564419 43.272533-0.402286 71.149714-2.904991 83.654705 14.561524-10.108343 41.059962-28.269714 79.488-54.486553-12.938971-6.49021-27.880838-11.329829-44.809752-14.493257l1.201981-4.276419c34.400305-1.032533 53.630781-0.112152 57.662171 2.744076 4.024076 2.875733 6.933943 5.684419 8.700343 8.438248 2.480762 3.869257 3.3536 7.982324 2.645334 12.325791-0.714362 4.366629-1.699352 6.932724-2.936686 7.726323-1.251962 0.803352-2.889143 0.301105-4.918857-1.517714-4.337371-2.661181-8.682057-5.333333-13.027962-8.005486-25.657295 18.795276-44.367238 33.716419-56.127391 44.763429-11.774781 11.056762-18.8928 20.115505-21.386971 27.153067l-22.332952-10.210743c5.418667-6.5792 7.936-18.709943 7.56419-36.399543-0.379124-17.668876-4.059429-39.460571-11.02019-65.375086z m134.112304 79.898819c24.782019 38.638933 39.415467 60.782933 43.940572 66.460038l-10.261943 14.761448-10.619124-16.557105-61.509486 39.450819 8.495543 13.246172-10.793447 13.932495c-4.69821-8.671086-13.671619-23.364267-26.945829-44.061257s-23.592229-36.078933-30.932114-46.177524l18.758704-1.515276 59.645562-38.256153 1.214172-12.462323 22.74499 0.599771-3.7376 10.578895z m-76.680533 44.508648l35.045181 54.638933 61.509486-39.450819-35.045181-54.638933-61.509486 39.450819z" p-id="2204" fill="#43bf88"></path><path d="M710.1952 534.321981l-14.005638-5.227276 2.333257-5.800229c10.357029-25.748724 15.941486-49.529905 16.637562-70.804724-17.033752 2.072381-31.140571 4.617752-42.008381 7.582477l-6.009905 1.639619-1.507962-6.044038c-5.958705-23.886019-12.752457-48.839924-20.222781-74.286324-5.582019 3.961905-10.5216 8.181029-14.73219 12.585447l-2.204038 2.305219-32.160914-5.056609 43.0848-27.634591c-8.196876-24.935619-14.73341-42.571581-19.449905-52.464152l-3.470629-7.278933 47.108876-8.016457-9.606095 19.107352c1.879771 7.51299 4.990781 18.695314 9.275733 33.350705l19.720534-12.647619 2.158933-14.3872 36.128914 1.984609-6.793752 15.509943a852.013105 852.013105 0 0 1 2.464914 6.56579l1.264153-1.536c3.050057-3.703467 6.596267-12.328229 6.174476-32.39619-0.365714-17.064229-4.003352-38.571886-10.812952-63.9232l-1.94682-7.248457 46.93821-2.620953-10.784914 17.905372c0.381562 31.211276-0.035352 54.094019-1.272686 69.229714 13.809371-9.515886 33.415314-22.942476 59.339581-40.638171-10.083962-4.088686-21.316267-7.302095-33.528686-9.584153l-6.552381-1.223923 4.217905-15.002819 4.472686-0.134096c9.118476-0.274286 17.295848-0.412038 24.305371-0.412038 27.268876 0 33.928533 2.055314 37.062705 4.2752 4.74819 3.393829 8.111543 6.699886 10.307048 10.121753 3.298743 5.1456 4.487314 10.730057 3.530361 16.597333-1.055695 6.457295-2.748952 10.008381-5.662476 11.877181a8.423619 8.423619 0 0 1-4.553143 1.334857c-2.458819 0-4.843276-0.9984-7.271619-3.050057-3.03299-1.861486-6.070857-3.729067-9.109942-5.596648-23.673905 17.444571-41.242819 31.518476-52.256915 41.865753-13.68259 12.847543-18.325943 20.548267-19.8144 24.746666l-0.415695 1.170286 21.118781-1.705448 55.873829-35.836342 1.478704-15.171048 36.80061 0.970362-5.536914 15.668419c23.608076 36.779886 37.724648 58.119314 41.966933 63.441676l2.829409 3.551086-18.062628 25.981562-12.255086-19.107353-51.247543 32.869181 7.527619 11.73821-19.152457 24.724724-4.453181-8.220039c-4.670171-8.621105-13.659429-23.314286-26.716647-43.6736-13.041371-20.334933-23.381333-35.772952-30.730972-45.883733l-3.996038-5.497905-26.314362-12.032c9.949867 27.768686 16.633905 51.797333 19.935086 71.678781 13.114514-1.532343 21.190705-1.696914 25.86819-0.424228 5.766095 1.60061 10.5216 5.28579 14.160457 10.961676a45.105981 45.105981 0 0 1 4.74941 9.784076c0.896 2.677029 2.970819 8.868571-1.956571 12.023467-1.607924 1.031314-3.565714 1.556724-5.8112 1.556724-2.993981 0-6.599924-0.899657-11.3408-2.82941a113.562819 113.562819 0 0 0-24.212724-5.569828c-3.523048 28.374552-13.01821 55.260648-28.266057 79.99878l-2.627048 4.261791zM727.291124 438.857143l0.113371 6.682819c0.092648 5.460114-0.126781 11.07261-0.657066 16.83139a187.02141 187.02141 0 0 0 2.863542-19.502323l0.44861-4.788419-0.775314 0.1024-0.825296-6.014781c-3.2512-23.71779-12.088076-54.471924-26.264381-91.406629l-0.896-2.336914 1.748115-3.991162-7.499581-0.412038-0.092648 0.615619 0.058514-0.036572 2.81722 6.659657c15.458743 36.536076 24.696686 67.841219 27.459047 93.047467l0.509562 4.656762 0.992305-0.107276z m-74.849524-76.631772l2.312533 7.764115c7.82141 26.25341 14.949181 52.053333 21.215086 76.791466 0.26941-0.06339 0.536381-0.126781 0.808229-0.188952l-0.079238-0.3072c-9.474438-36.860343-16.234057-63.494095-20.111848-79.24419l-0.42301 0.270628-2.304-7.7824c-6.013562-20.321524-10.1376-35.092724-12.261181-43.901562l-0.522971-2.169905 0.791162-1.57379-7.665372 1.304381c4.7104 11.237181 10.641067 27.786971 17.695696 49.388495l0.544914-0.351086z m113.653029 9.810896c6.713295 9.696305 15.056457 22.313448 24.907581 37.672228 9.814552 15.302705 17.3824 27.488305 22.598704 36.384915l2.555124-3.298743-45.614324-71.118019-4.447085 0.359619z m-30.388419 65.294628l0.38278 0.0256c11.485867 0.774095 22.721829 3.069562 33.39581 6.819353l0.290133 0.109714c0.510781 0.209676 0.989867 0.39741 1.434819 0.564419a34.613638 34.613638 0 0 0-1.809066-3.175619c-2.000457-3.119543-4.333714-5.012724-7.132648-5.789257-0.427886-0.117029-1.848076-0.405943-5.156571-0.405943-4.910324 0.001219-12.110019 0.624152-21.405257 1.851733z m-66.784305-71.192381c3.704686 14.991848 9.754819 38.8352 18.024838 71.042438a733.91299 733.91299 0 0 1 26.049828-6.870552c-3.064686-21.523505-10.822705-47.57821-23.113142-77.616762l-20.961524 13.444876z m116.381257 5.975772l28.463543 44.378209 51.248762-32.869181-28.464762-44.378209-51.247543 32.869181z m93.159619 9.89379l8.983162 14.006857 2.552686-3.67299c-6.474362-9.069714-20.15939-29.908114-41.567086-63.285638l-1.609143-2.510019 1.938286-5.485715-8.689372-0.229181-0.174324 1.784686 0.33402-0.214552 38.231771 59.606552z m-142.5664-35.129295l6.414629 2.933029c2.767238-4.818895 6.940038-10.14979 12.589104-16.082896a3989.343086 3989.343086 0 0 0-12.675657 8.757638l-6.328076 4.392229z m-8.671086-95.341714c4.144762 16.437638 6.930286 31.278324 8.323657 44.352609 0.21699-11.825981 0.220648-25.834057 0.009753-41.984l-0.023162-1.737143 0.683886-1.133714-8.994134 0.502248z m102.089143 31.277104l8.120076 4.990781c0.062171-0.323048 0.125562-0.675352 0.186515-1.056914 0.470552-2.884267-0.08899-5.444267-1.760305-8.051809-1.306819-2.037029-3.654705-4.282514-6.980267-6.674286-0.847238-0.394971-5.443048-1.917562-26.04739-2.095543 6.418286 2.234514 12.473295 4.777448 18.13699 7.619048l9.259886 4.644571-0.915505 0.624152z" fill="#43bf88" p-id="2205"></path></svg>